<svg version="1.2" xmlns="http://www.w3.org/2000/svg" viewBox="0 0 45 46" width="45" height="46"><defs><clipPath clipPathUnits="userSpaceOnUse" id="cp1"><path d="m-733-3222h960v3722h-960z"/></clipPath><filter x="-50%" y="-50%" width="200%" height="200%" id="f1" ><feDropShadow dx="-1.8369701987210297e-16" dy="3" stdDeviation="2.916666666666667" flood-color="#000000" flood-opacity=".2"/></filter></defs><style>.a{filter:url(#f1);fill:#fff}.b{fill:#ff214f}</style><g clip-path="url(#cp1)"><path class="a" d="m22.7 34.5c-7.8 0-14.2-6.4-14.2-14.3 0-7.8 6.4-14.2 14.2-14.2 7.9 0 14.3 6.4 14.3 14.2 0 7.9-6.4 14.3-14.3 14.3z"/><path class="b" d="m25 24.4q-0.1-0.2-0.1-0.4 0-0.3 0.1-0.4l3.3-3.3-3.3-3.2c-0.2-0.2-0.2-0.6 0-0.9 0.3-0.2 0.7-0.2 0.9 0l3.7 3.7q0.1 0.2 0.1 0.4 0 0.3-0.1 0.5l-3.7 3.6q-0.2 0.2-0.4 0.2-0.3 0-0.5-0.2z"/><path class="b" d="m16.3 20.3c0-0.3 0.3-0.6 0.6-0.6h11c0.3 0 0.6 0.3 0.6 0.6 0 0.4-0.3 0.6-0.6 0.6h-11c-0.3 0-0.6-0.2-0.6-0.6z"/></g></svg>