<svg id="Layer_1" data-name="Layer 1" xmlns="http://www.w3.org/2000/svg" width="184.3" height="55.6" viewBox="0 0 184.3 55.6">
  <g>
    <ellipse cx="27.2" cy="27.9" rx="25.7" ry="22.2" transform="translate(-5.3 51.2) rotate(-83)" fill="#fff"/>
    <path d="M52.2,23.1A35.2,35.2,0,0,1,49,37.8a33.7,33.7,0,0,1-5.1,8.3,27.4,27.4,0,0,1-17.5,9.6,21.3,21.3,0,0,1-14.3-3.3A19.9,19.9,0,0,1,5.4,45,35.1,35.1,0,0,1,1.7,32.3,33.6,33.6,0,0,1,3,19.3,25.7,25.7,0,0,1,8.2,9.7a24.3,24.3,0,0,1,8.9-7,25.8,25.8,0,0,1,26.8,3,20.7,20.7,0,0,1,7.9,13A18.8,18.8,0,0,1,52.2,23.1Zm-24.3.3V21.6c-.1-1.1-.5-1.5-1.6-1.7a6.6,6.6,0,0,0-2.8.1c-1.6.4-2.1,1.1-2,2.7s.1,4.7.2,7,0,4,.1,6,0,2.4.2,3.6a1.6,1.6,0,0,0,1.3,1.5,4.1,4.1,0,0,0,2.9-.7,1.9,1.9,0,0,0,1-1.7,13.4,13.4,0,0,0,.1-2c.1-.4.2-.6.7-.6s2.2-.1,3.3-.3a15.7,15.7,0,0,0,9-4.4c3.4-3.6,4.1-7.8,2.5-12.4s-3.9-5.6-7.1-7a20.2,20.2,0,0,0-10.6-1.4,19.7,19.7,0,0,0-13.2,6.5,4.5,4.5,0,0,0-1.2,2.1c-.3,1.4.6,2.3,2,1.9a1.8,1.8,0,0,0,.7-.5l1.2-1a18,18,0,0,1,6.3-3.9,27.5,27.5,0,0,1,7.5-.9,11.2,11.2,0,0,1,6,1.6,7.8,7.8,0,0,1,2.5,11.8c-2.2,2.8-5.4,4-8.9,4.3-.5.1-.4-.2-.4-.5C27.8,28.9,27.8,26.1,27.9,23.4ZM24.6,47.7a2.2,2.2,0,0,0,2.5-2.2,2.6,2.6,0,0,0-2.5-2.7,2.5,2.5,0,0,0-2.5,2.6C22.1,46.9,23,47.7,24.6,47.7Z" transform="translate(-1.5 -0.3)" fill="#0087a7"/>
    <path d="M67.6,15.1h4.7a15.2,15.2,0,0,1,6,1,6.9,6.9,0,0,1,2.8,11.1A9.2,9.2,0,0,1,76,30.1a26.2,26.2,0,0,1-6.2.4c-.8,0-.8,0-.8.8v5.2c-.1,1.9.2,2.8,2.9,3.1h.7c.2.1.4.3.3.5s-.1.4-.4.5H61.8c-.3,0-.6-.1-.6-.4a.5.5,0,0,1,.6-.6l1.6-.4a2,2,0,0,0,1.5-2V18.5a2,2,0,0,0-1.8-2.1l-1.3-.2c-.4,0-.6-.2-.5-.6s.3-.5.6-.5ZM69,22.7v5.9c-.1.5.1.6.6.6h3.8c2.5-.2,4.1-1.4,4.5-3.7a11.1,11.1,0,0,0,.1-4.8,4.5,4.5,0,0,0-4.2-4.1,29.5,29.5,0,0,0-4.2-.2q-.7,0-.6.6Z" transform="translate(-1.5 -0.3)" fill="#343333"/>
    <path d="M172.3,25.7a7.5,7.5,0,0,1,5.9-3.4c3.4-.2,5.4,1.6,5.5,5.1s0,7.1,0,10.7c0,1.2.1,1.4,1.4,1.6s.8,0,.7.5-.5.5-.9.5h-6.2c-.3-.1-.5-.2-.5-.5s.2-.4.5-.5h.1c1.1-.1,1.2-.4,1.2-1.6.1-3,0-6,0-9a16.2,16.2,0,0,0-.1-2.2,2.9,2.9,0,0,0-4.5-2.1,7.4,7.4,0,0,0-2.9,3.4,1.5,1.5,0,0,0-.1.7v9.5c0,.9.2,1.1,1.1,1.3s.7.1.7.5-.4.5-.8.5h-6.5c-.2-.1-.3-.2-.3-.4s.2-.4.3-.4h.5c1.2-.2,1.4-.4,1.4-1.6V25.7c0-1.4-.3-1.7-1.6-2.1s-.6-.2-.6-.6.4-.4.7-.4,2.9,0,4.3-.2.7.2.7.7A22.5,22.5,0,0,1,172.3,25.7Z" transform="translate(-1.5 -0.3)" fill="#343333"/>
    <path d="M111,38a8.6,8.6,0,0,1-1.8,1.6,6.4,6.4,0,0,1-5.5,1.1,3.8,3.8,0,0,1-3.1-3.2,4.2,4.2,0,0,1,1.7-4.5,11.8,11.8,0,0,1,4-1.7l4-1.1a.5.5,0,0,0,.6-.6c-.1-1.1,0-2.1-.1-3.2s-1.3-3-3.4-3a5.3,5.3,0,0,0-2.4.8c-.3.2-.4.3-.1.6a3.1,3.1,0,0,1,.5,1,2.3,2.3,0,0,1-.8,2.5,2.1,2.1,0,0,1-2.5.1,2.5,2.5,0,0,1-.7-3.2,5,5,0,0,1,2.3-2,10.5,10.5,0,0,1,7.2-.5,4.6,4.6,0,0,1,3.6,4.9c.1,3.1,0,6.3,0,9.4a1.7,1.7,0,0,0,.1.7c0,1.2.5,1.6,1.7,1.5s.5,0,.6.3-.1.5-.4.7a5.3,5.3,0,0,1-3.5.5,2.1,2.1,0,0,1-1.8-1.7A8.4,8.4,0,0,0,111,38Zm-.1-3.9V31.9c0-.2,0-.4-.4-.4a18.3,18.3,0,0,0-4.6,1.8,2.9,2.9,0,0,0-1.5,2.4c-.2,2.9,2,3.8,3.9,3.1a6.9,6.9,0,0,0,2.1-1.6,1.7,1.7,0,0,0,.5-1.3A10.8,10.8,0,0,1,110.9,34.1Z" transform="translate(-1.5 -0.3)" fill="#343333"/>
    <path d="M148,31.7c.1-4,1.8-7.1,5.5-8.7a8.5,8.5,0,0,1,10.9,3.3,9.7,9.7,0,0,1-4.8,14.3,8.9,8.9,0,0,1-11.3-6.3l-.3-1.5Zm13.8.2a15.2,15.2,0,0,0-.8-5.5,4.2,4.2,0,0,0-5-3,3.5,3.5,0,0,0-3.1,2.7,20,20,0,0,0-.7,7.7,9.4,9.4,0,0,0,.8,3.3c1,2.4,2.9,3,5.1,2.7a4,4,0,0,0,3-3A14.2,14.2,0,0,0,161.8,31.9Z" transform="translate(-1.5 -0.3)" fill="#343333"/>
    <path d="M92.4,30.5H87c-.4,0-.6.1-.6.6a10.4,10.4,0,0,0,1.1,5.2,5.6,5.6,0,0,0,8.7,1.2l1.2-1.3c.2-.3.4-.5.8-.3s.2.6,0,.9a8.3,8.3,0,0,1-8.6,4.1,8.4,8.4,0,0,1-7-6.8c-.7-3.8.1-7.1,3-9.8a8,8,0,0,1,10.2-.6,6.9,6.9,0,0,1,2.6,5.7c.1,1.3.1,1.1-1,1.1Zm-2-1.3h3.4c.3,0,.5-.1.5-.4a7.6,7.6,0,0,0-.2-3,3.1,3.1,0,0,0-2.7-2.4,3.5,3.5,0,0,0-3.5,1.4,8.4,8.4,0,0,0-1.4,4c0,.3.1.4.4.4Z" transform="translate(-1.5 -0.3)" fill="#343333"/>
    <path d="M133.3,37.7V35c0-.3,0-.6.4-.7s.6.2.7.5a33.7,33.7,0,0,0,2.1,3.1,4.4,4.4,0,0,0,5.7,1.4,2.7,2.7,0,0,0,.3-4.7,9,9,0,0,0-3.2-1.3,19.9,19.9,0,0,1-2.6-.9c-1.8-.7-3.1-1.8-3.3-3.9a5.2,5.2,0,0,1,2.8-5.4,7.6,7.6,0,0,1,6.9-.2c.5.3.8.2,1.1-.3l.3-.3a.6.6,0,0,1,.6-.1c.3.1.2.3.2.5v4.8c0,.3,0,.6-.4.7a.5.5,0,0,1-.7-.4,31.3,31.3,0,0,0-2-3,4.1,4.1,0,0,0-4.7-1.1,2.5,2.5,0,0,0-.3,4.4,10.5,10.5,0,0,0,2.9,1.2l2.9,1c3.5,1.5,3.7,4.8,2.6,7.4a5.1,5.1,0,0,1-4.6,3.2,9.7,9.7,0,0,1-5.3-1,.6.6,0,0,0-.7.1,6,6,0,0,1-.8.8.6.6,0,0,1-.7.1c-.2-.1-.2-.3-.2-.5Z" transform="translate(-1.5 -0.3)" fill="#343333"/>
    <path d="M124.2,25.3c.7-.7,1.3-1.4,2-2a4.7,4.7,0,0,1,3.6-1,2.7,2.7,0,0,1,2.3,3.5,2.3,2.3,0,0,1-2.7,1.5,2.3,2.3,0,0,1-1.8-2.4c0-.6,0-.7-.5-.4a5.8,5.8,0,0,0-2.2,2.2,2.8,2.8,0,0,0-.6,1.8v9.8c0,1,.3,1.2,1.2,1.3h.8c.3.1.5.2.5.5s-.3.5-.6.5h-7c-.4,0-.7-.1-.7-.5s.3-.4.6-.5,1.5-.3,1.5-1.7V25.5c0-1.3-.2-1.6-1.5-1.9s-.6-.2-.6-.6.4-.4.8-.4h4.1c.6-.1.8.1.8.7A14.7,14.7,0,0,1,124.2,25.3Z" transform="translate(-1.5 -0.3)" fill="#343333"/>
  </g>
</svg>
