<svg id="Layer_1" data-name="Layer 1" xmlns="http://www.w3.org/2000/svg" width="71.5" height="71.5" viewBox="0 0 71.5 71.5"><circle cx="35.7" cy="35.7" r="35.7" fill="#d00800"/><path d="M44.7,42.6a4.9,4.9,0,0,1-.5,2.4,3.9,3.9,0,0,1-1.3,2,7.4,7.4,0,0,1-2.1,1.3,5.2,5.2,0,0,1-2.4.5H36.5v6H32V30.4h6.3a5,5,0,0,1,2.4.6,5.7,5.7,0,0,1,2.1,1.3,6.4,6.4,0,0,1,1.3,1.9,5.8,5.8,0,0,1,.5,2.6v5.8Zm13.2,8.7a6.6,6.6,0,0,1-1.4,2,5.2,5.2,0,0,1-1.9,1.4,6.9,6.9,0,0,1-2.4.5,7,7,0,0,1-2.5-.5,4.8,4.8,0,0,1-2-1.4,6.6,6.6,0,0,1-1.4-2,7,7,0,0,1-.5-2.5V47h4.4v2a1.7,1.7,0,0,0,.4,1.3,2.1,2.1,0,0,0,1.5.4,1.8,1.8,0,0,0,1.2-.5c.2-.2.4-.3.5-.6a1.5,1.5,0,0,0,.1-.7,1.3,1.3,0,0,0-.3-.8,1.9,1.9,0,0,0-.6-.7l-5.5-6.5a6.3,6.3,0,0,1-1.3-2,6.9,6.9,0,0,1,.1-4.9,5.7,5.7,0,0,1,1.3-2.1,5,5,0,0,1,1.9-1.3,7,7,0,0,1,2.5-.5,6.9,6.9,0,0,1,2.4.5,5.3,5.3,0,0,1,2,1.3A5.5,5.5,0,0,1,57.6,34a6.9,6.9,0,0,1,.5,2.4v1.9H53.6v-.8a6.4,6.4,0,0,0-.3-2c-.2-.6-.7-.8-1.4-.8h-.7a1,1,0,0,0-.6.5,1.8,1.8,0,0,0-.5,1.2,1.9,1.9,0,0,0,.1.8,1.8,1.8,0,0,0,.5.7l5.5,6.4,1,1.2a2.4,2.4,0,0,1,.6,1.1l.3,1.1a4.1,4.1,0,0,1,.1,1.1,4,4,0,0,1-.3,2.4Zm1.6,3.5V30.4H64V54.8ZM38.5,35H36.6v9.3h2.6l.6-.4.4-.6a1.7,1.7,0,0,0,.1-.7V36.7a.9.9,0,0,0-.1-.7,1,1,0,0,0-.4-.5,1.7,1.7,0,0,0-1.3-.5Z" transform="translate(-0.8 -0.8)" fill="#fff"/></svg>