<svg xmlns="http://www.w3.org/2000/svg" viewBox="0 0 248 248"><defs><style>.cls-1{fill:#e35500;}.cls-2,.cls-3,.cls-4{fill:#f0ab00;}.cls-3{opacity:0.7;}.cls-4{opacity:0.4;}.cls-5{fill:#fff;}</style></defs><title>281951-pictogram-neg</title><g id="color_band" data-name="color band"><circle class="cls-1" cx="54.21" cy="142.93" r="36.1"/><circle class="cls-1" cx="185.63" cy="142.93" r="36.1"/></g><g id="_100_band" data-name="100% band"><path class="cls-2" d="M54.21,179a36.12,36.12,0,0,0,31.24-18H23A36.11,36.11,0,0,0,54.21,179Z"/><path class="cls-2" d="M185.64,179a36.11,36.11,0,0,0,31.24-18H154.39A36.12,36.12,0,0,0,185.64,179Z"/></g><g id="_70_band" data-name="70% band"><path class="cls-3" d="M85.44,161a35.86,35.86,0,0,0,4.86-18.05H18.11A35.87,35.87,0,0,0,23,161Z"/><path class="cls-3" d="M216.87,161a35.87,35.87,0,0,0,4.86-18.05h-72.2A35.86,35.86,0,0,0,154.4,161Z"/></g><g id="_40_band" data-name="40% band"><path class="cls-4" d="M18.11,142.93h72.2a35.87,35.87,0,0,0-4.85-18H23a35.87,35.87,0,0,0-4.85,18Z"/><path class="cls-4" d="M149.53,142.93h72.2a35.87,35.87,0,0,0-4.85-18h-62.5a35.87,35.87,0,0,0-4.85,18Z"/></g><g id="outlines"><path class="cls-5" d="M129.29,124.31a9.38,9.38,0,1,0-9.38,9.38A9.39,9.39,0,0,0,129.29,124.31Zm-14.77,0a5.38,5.38,0,1,1,5.38,5.38A5.39,5.39,0,0,1,114.52,124.31Zm14.87,20q0,2.1.2,4.06a43.55,43.55,0,0,1-19.32,0q.15-2,.2-4.06a39.81,39.81,0,0,0,18.93,0ZM57.9,64.18a44.48,44.48,0,0,0-6.18,1.57l5-6.64a25.15,25.15,0,0,1,45.61,11.17h0a42.33,42.33,0,0,1,35.21,0h0a25.15,25.15,0,0,1,45.61-11.17l5,6.64a44.48,44.48,0,0,0-6.18-1.57l-2-2.73a21.16,21.16,0,0,0-38.57,12v4.3a45,45,0,0,0-4,5V74.6a38.4,38.4,0,0,0-34.8,0v8.12a45,45,0,0,0-4-5v-4.3a21.16,21.16,0,0,0-38.57-12Zm176,78.74a48.31,48.31,0,0,1-96.63,0h0V108.19c0-.29,0-.57,0-.86a38.41,38.41,0,0,0-34.84,0c0,.29,0,.57,0,.86v34.73h0a48.31,48.31,0,0,1-96.63,0,47.83,47.83,0,0,1,8.31-27.09l23-30.78a36.75,36.75,0,0,1,12.36-9.83L19,116.07a43.91,43.91,0,0,0-9.07,26.85,44.31,44.31,0,0,0,88.63,0h0a44.3,44.3,0,0,0-58.1-42.11l3.88-5.18A48.31,48.31,0,0,1,98.52,123.7V108.19a32.73,32.73,0,0,0-39.58-32l3.43-4.56c1.13-.1,2.26-.17,3.41-.17a36.79,36.79,0,0,1,36.37,31.61,42.3,42.3,0,0,1,35.53,0,36.79,36.79,0,0,1,36.37-31.61c1.15,0,2.28.07,3.41.17l3.43,4.56a32.73,32.73,0,0,0-39.58,32V123.7a48.31,48.31,0,0,1,54.22-28.07l3.88,5.18a44.3,44.3,0,0,0-58.1,42.11h0a44.31,44.31,0,0,0,88.63,0,43.91,43.91,0,0,0-9.07-26.85L190.23,75.22a36.75,36.75,0,0,1,12.36,9.83l23,30.78A47.83,47.83,0,0,1,233.95,142.93Zm-147.66.67c0-.22,0-.44,0-.67A32.1,32.1,0,1,0,54.21,175l.72,0v4l-.72,0a36.1,36.1,0,1,1,36.1-36.1c0,.22,0,.44,0,.67ZM186.2,179v-4a32.13,32.13,0,0,0,31.5-30.57h4A36.13,36.13,0,0,1,186.2,179Zm-32.67-36.09c0,.84,0,1.67.11,2.5h-4c-.06-.83-.1-1.66-.1-2.5a36.14,36.14,0,0,1,36.1-36.1l.72,0v4l-.72,0A32.14,32.14,0,0,0,153.53,142.93Z"/></g></svg>