<svg xmlns="http://www.w3.org/2000/svg" viewBox="0 0 248 248"><defs><style>.cls-1{fill:#e35500;}.cls-2,.cls-3,.cls-4{fill:#f0ab00;}.cls-3{opacity:0.7;}.cls-4{opacity:0.4;}.cls-5{fill:#fff;}</style></defs><title>282108-pictogram-neg</title><g id="color_band" data-name="color band"><path class="cls-1" d="M65.29,139.38a25.94,25.94,0,0,1,3.59.25,25.62,25.62,0,0,1,25.6-24.37l1,0A46,46,0,0,1,145.8,84.63,60.67,60.67,0,1,0,45,149.14,25.9,25.9,0,0,1,65.29,139.38Z"/></g><g id="_100_band" data-name="100% band"><path class="cls-2" d="M85.09,117a25.58,25.58,0,0,1,9.4-1.78l1,0a45.83,45.83,0,0,1,4.21-9A9.93,9.93,0,1,0,85.09,117Z"/></g><g id="_70_band" data-name="70% band"><path class="cls-3" d="M72.09,128.43a25.71,25.71,0,0,1,13-11.38,9.93,9.93,0,1,1,14.6-10.73A46.3,46.3,0,0,1,111.94,93a26.85,26.85,0,1,0-39.85,35.47Z"/></g><g id="_40_band" data-name="40% band"><path class="cls-4" d="M59.42,140.06a25.78,25.78,0,0,1,9.47-.42,25.46,25.46,0,0,1,3.2-11.2A26.85,26.85,0,1,1,111.94,93a45.82,45.82,0,0,1,15.66-7.39,44,44,0,1,0-68.19,54.49Z"/></g><g id="outlines_--_combound_path" data-name="outlines -- combound path"><path class="cls-5" d="M175.9,193.29H65.29a28,28,0,1,1,1.77-55.85,27.59,27.59,0,0,1,27-24.17,48,48,0,0,1,92.45,9.65,36,36,0,0,1-10.63,70.37ZM65.29,141.38a24,24,0,1,0,0,47.91H175.9a32,32,0,0,0,8.3-62.87l-1.3-.35-.17-1.34a44,44,0,0,0-85.37-8.79l-.48,1.41-1.49-.06-.91,0a23.59,23.59,0,0,0-23.61,22.46l-.1,2.19-2.17-.3A24.17,24.17,0,0,0,65.29,141.38Z"/></g></svg>