<svg xmlns="http://www.w3.org/2000/svg" viewBox="0 0 248 248"><defs><style>.cls-1{fill:#e35500;}.cls-2,.cls-3,.cls-4{fill:#f0ab00;}.cls-3{opacity:0.7;}.cls-4{opacity:0.4;}.cls-5{fill:#fff;}</style></defs><title>282039-picrogram-neg</title><g id="color_band" data-name="color band"><path class="cls-1" d="M190.91,98.46h-60c-6.21.66-8.27,6.25-8.77,9.1v39H110.3v16h43.07a8,8,0,0,1,5.28-14h6.87v14h34.33V108.66C199.74,106.57,198.09,99.22,190.91,98.46Z"/></g><g id="_100_band" data-name="100% band"><path class="cls-2" d="M190.91,98.46h-60c-6.21.66-8.27,6.25-8.77,9.1v6.92h77.69v-5.82C199.74,106.57,198.09,99.22,190.91,98.46Z"/></g><g id="_70_band" data-name="70% band"><rect class="cls-3" x="122.16" y="114.48" width="77.69" height="16.02"/></g><g id="_40_band" data-name="40% band"><rect class="cls-4" x="122.16" y="130.5" width="77.69" height="16.02"/></g><g id="outlines_--_combound_path" data-name="outlines -- combound path"><path class="cls-5" d="M169.73,71.26v27.2h-4V71.26h0a9.41,9.41,0,1,0-18.83,0v4.92h2.29v2a7.13,7.13,0,0,0,7.12,7.13v4a11.14,11.14,0,0,1-10.94-9.13h-2.47V71.25a13.41,13.41,0,1,1,26.83,0ZM34.78,166.54V177H209v4H30.78V162.54H76.55V151.27H30.79v-4H45.95l2-13.43H30.78V64H110.3v69.79H68l-2,13.43H80.55v15.27h12.9a10,10,0,0,1,8-16h8.87v16h26.61v-39.2h4v39.2h9.75a10,10,0,0,1,8-16H159V135.88L146,98.46l3.78-1.32L163,135.2v11.32h18.1v-23h4v27H167.52v12H209v4Zm117.86-10a6,6,0,0,0,6,6h4.87v-12h-4.87A6,6,0,0,0,152.64,156.53Zm-57.22,0a6,6,0,0,0,6,6h4.87v-12h-4.87A6,6,0,0,0,95.43,156.53Zm-46.9-26.69,5.42-36.62H74l-5.41,36.62H106.3V68H34.78v61.79ZM62,147.27l7.4-50.05h-12L50,147.27Z"/></g></svg>