<svg xmlns="http://www.w3.org/2000/svg" viewBox="0 0 248 248"><defs><style>.cls-1{fill:#fff;}.cls-2{fill:#e35500;}.cls-3,.cls-4,.cls-5{fill:#f0ab00;}.cls-4{opacity:0.7;}.cls-5{opacity:0.4;}</style></defs><title>283754-pictogram-neg</title><g id="outlines_--_combound_path" data-name="outlines -- combound path"><path class="cls-1" d="M237.07,129.61V76.37h-72v53.24h32.11l6.5,14H178.55v12H158v0H105.48v-8h54.38v-4H144l-6.5-14H160V76.37H88v53.24h32.12l6.5,14H101.48v12H80.94v0H28.42v-8H82.81v-4H67l-6.5-14H82.94V76.37h-72v53.24H43l6.5,14H24.42v12H10.93v22H237.07v-22h-2v0H182.55v-8h54.38v-4H221.09l-6.5-14ZM92,80.37h64v45.24H92Zm32.57,49.33h8.6l6.46,13.91H131ZM14.93,80.37h64v45.24h-64ZM47.5,129.7h8.6l6.46,13.91H54Zm185.57,43.93H14.93v-14H233.07Zm-25-30-6.46-13.91h8.6l6.46,13.91Zm-39-63.24h64v45.24h-64Z"/></g><g id="color_band" data-name="color band"><path class="cls-2" d="M144.56,121.43h-4v-8.75h4ZM152,97.66h-4v23.77h4ZM46.94,86.6a16.48,16.48,0,1,0,16.48,16.48A16.48,16.48,0,0,0,46.94,86.6ZM100,93H96v28.44h4Zm7.42,10.93h-4v17.51h4Zm7.42-18.22h-4v35.73h4Zm7.42,12h-4v23.77h4Zm7.42,4.61h-4v19.16h4Zm7.42-12.37h-4v31.53h4Zm70,5.86h-30v14.15H225V95.76Z"/></g><g id="_100_band" data-name="100% band"><path class="cls-3" d="M46.94,103.08l3.32-16.15A16.47,16.47,0,0,1,62,109.73Zm97.63,9.59h-4v8.75h4Zm7.42-15h-4v23.77h4Zm73-1.9H207.17v14.15H225Z"/></g><g id="_70_band" data-name="70% band"><path class="cls-4" d="M46.94,103.08,36.37,90.44a16.5,16.5,0,0,1,13.89-3.51Zm82.78-.82h-4v19.16h4Zm7.42-12.37h-4v31.53h4Zm70,5.86H196v14.15h11.14Z"/></g><g id="_40_band" data-name="40% band"><path class="cls-5" d="M46.94,103.08s-9.83-1.56-16.28-2.47a16.45,16.45,0,0,1,5.71-10.17ZM114.87,85.7h-4v35.73h4Zm7.42,12h-4v23.77h4ZM196,95.76h-5.46v14.15H196Z"/></g></svg>