<svg width="387" height="387" xmlns="http://www.w3.org/2000/svg">

 <g>
  <title>background</title>
  <rect fill="#011213" id="canvas_background" height="389" width="389" y="-1" x="-1"/>
 </g>
 <g>
  <title>Layer 1</title>
  <path fill="#ffffff" id="svg_2" d="m13.03,121.303l360.909,0c6.641,0 12.03,-5.39 12.03,-12.03c0,-6.641 -5.39,-12.03 -12.03,-12.03l-360.909,0c-6.641,0 -12.03,5.39 -12.03,12.03c0,6.64 5.39,12.03 12.03,12.03z"/>
  <path fill="#ffffff" id="svg_3" d="m373.939,181.455l-360.909,0c-6.641,0 -12.03,5.39 -12.03,12.03s5.39,12.03 12.03,12.03l360.909,0c6.641,0 12.03,-5.39 12.03,-12.03s-5.389,-12.03 -12.03,-12.03z"/>
  <path fill="#ffffff" id="svg_4" d="m373.939,265.667l-240.606,0c-6.641,0 -12.03,5.39 -12.03,12.03c0,6.641 5.39,12.03 12.03,12.03l240.606,0c6.641,0 12.03,-5.39 12.03,-12.03c0.001,-6.641 -5.389,-12.03 -12.03,-12.03z"/>
 </g>
</svg>