<svg width="800" height="600" xmlns="http://www.w3.org/2000/svg">
 <!-- Created with Method Draw - http://github.com/duopixel/Method-Draw/ -->

 <g>
  <title>background</title>
  <rect fill="#fff" id="canvas_background" height="602" width="802" y="-1" x="-1"/>
  <g display="none" overflow="visible" y="0" x="0" height="100%" width="100%" id="canvasGrid">
   <rect fill="url(#gridpattern)" stroke-width="0" y="0" x="0" height="100%" width="100%"/>
  </g>
 </g>
 <g>
  <title>Layer 1</title>
  <g transform="rotate(1 399.99996948242523,299.99996948242097) " id="svg_32">
   <g transform="matrix(0.26990206736405753,0,0,0.26990206736405753,0,0) " id="svg_7">
    <g id="svg_5">
     <path fill="#ffffff" stroke="#ffffff" id="svg_8" d="m1301.56455,1039.33224l360.909,0c6.641,0 12.03,-5.39 12.03,-12.03c0,-6.641 -5.39,-12.03 -12.03,-12.03l-360.909,0c-6.641,0 -12.03,5.39 -12.03,12.03c0,6.64 5.39,12.03 12.03,12.03z"/>
     <path fill="#ffffff" stroke="#ffffff" id="svg_9" d="m1662.47355,1099.48424l-360.909,0c-6.641,0 -12.03,5.39 -12.03,12.03s5.39,12.03 12.03,12.03l360.909,0c6.641,0 12.03,-5.39 12.03,-12.03s-5.389,-12.03 -12.03,-12.03z"/>
     <path fill="#ffffff" stroke="#ffffff" id="svg_10" d="m1662.47355,1183.69624l-240.606,0c-6.641,0 -12.03,5.39 -12.03,12.03c0,6.641 5.39,12.03 12.03,12.03l240.606,0c6.641,0 12.03,-5.39 12.03,-12.03c0.001,-6.641 -5.389,-12.03 -12.03,-12.03z"/>
    </g>
    <g id="svg_11"/>
    <g id="svg_12"/>
    <g id="svg_13"/>
    <g id="svg_14"/>
    <g id="svg_15"/>
    <g id="svg_16"/>
   </g>
   <g transform="matrix(0.26990206736405753,0,0,0.26990206736405753,0,0) " id="svg_17"/>
   <g transform="matrix(0.26990206736405753,0,0,0.26990206736405753,0,0) " id="svg_18"/>
   <g transform="matrix(0.26990206736405753,0,0,0.26990206736405753,0,0) " id="svg_19"/>
   <g transform="matrix(0.26990206736405753,0,0,0.26990206736405753,0,0) " id="svg_20"/>
   <g transform="matrix(0.26990206736405753,0,0,0.26990206736405753,0,0) " id="svg_21"/>
   <g transform="matrix(0.26990206736405753,0,0,0.26990206736405753,0,0) " id="svg_22"/>
   <g transform="matrix(0.26990206736405753,0,0,0.26990206736405753,0,0) " id="svg_23"/>
   <g transform="matrix(0.26990206736405753,0,0,0.26990206736405753,0,0) " id="svg_24"/>
   <g transform="matrix(0.26990206736405753,0,0,0.26990206736405753,0,0) " id="svg_25"/>
   <g transform="matrix(0.26990206736405753,0,0,0.26990206736405753,0,0) " id="svg_26"/>
   <g transform="matrix(0.26990206736405753,0,0,0.26990206736405753,0,0) " id="svg_27"/>
   <g transform="matrix(0.26990206736405753,0,0,0.26990206736405753,0,0) " id="svg_28"/>
   <g transform="matrix(0.26990206736405753,0,0,0.26990206736405753,0,0) " id="svg_29"/>
   <g transform="matrix(0.26990206736405753,0,0,0.26990206736405753,0,0) " id="svg_30"/>
   <g transform="matrix(0.26990206736405753,0,0,0.26990206736405753,0,0) " id="svg_31"/>
  </g>
 </g>
</svg>