<svg id="Capa_1" enable-background="new 0 0 512 512" height="512" viewBox="0 0 512 512" width="512" xmlns="http://www.w3.org/2000/svg" xmlns:xlink="http://www.w3.org/1999/xlink"><linearGradient id="SVGID_1_" gradientUnits="userSpaceOnUse" x1="256" x2="256" y1="512" y2="0"><stop offset="0" stop-color="#c3ffe8"/><stop offset=".9973" stop-color="#f0fff4"/></linearGradient><linearGradient id="SVGID_2_" gradientUnits="userSpaceOnUse" x1="256" x2="256" y1="407" y2="105"><stop offset="0" stop-color="#9cffac"/><stop offset="1" stop-color="#00b59c"/></linearGradient><g><g><circle cx="256" cy="256" fill="url(#SVGID_1_)" r="256"/></g><g><g><path d="m176.059 407h53.294v-88.824h-53.294zm204.294-230.941h-248.706c-14.694 0-26.647 11.953-26.647 26.647v17.765c0 1.708.494 2.55 1.24 3.287 5.89 5.847 26.196 5.708 38.383 5.621h9.55c8.24.061 17.669.13 20.324-2.498 1.292-1.284 1.561-4.189 1.561-6.41 0-4.91 3.973-8.882 8.882-8.882 4.91 0 8.882 3.973 8.882 8.882 0 2.221.269 5.126 1.561 6.41 2.646 2.628 12.04 2.55 20.324 2.498h9.524c8.267.061 17.661.13 20.324-2.498 1.292-1.284 1.561-4.189 1.561-6.41 0-4.91 3.973-8.882 8.882-8.882s8.882 3.973 8.882 8.882c0 2.221.269 5.126 1.561 6.41 2.654 2.628 12.066 2.55 20.324 2.498h9.524c8.24.061 17.669.13 20.324-2.498 1.292-1.284 1.561-4.189 1.561-6.41 0-4.91 3.973-8.882 8.882-8.882 4.91 0 8.882 3.973 8.882 8.882 0 2.221.269 5.126 1.561 6.41 2.663 2.628 12.04 2.55 20.324 2.498h9.55c12.144.069 32.493.226 38.383-5.621.746-.737 1.24-1.579 1.24-3.287v-17.765c.004-14.694-11.949-26.647-26.643-26.647zm-177.647 106.588c-11.565 0-21.332 7.448-25.011 17.765h50.022c-3.679-10.317-13.446-17.765-25.011-17.765zm133.235 35.529h-35.529v35.53h35.529zm21.861-71.032h.163c-.093 0-.138 0-.163 0zm-142.142 0h.187c-.131 0-.187 0-.187 0zm142.142 0c-11.875.029-22.865-.15-30.7-6.219-6.934 5.41-16.364 6.236-26.656 6.236-1.609 0-13.781-.015-13.729-.017-11.843.029-22.836-.155-30.673-6.22-6.933 5.411-16.364 6.237-26.657 6.237-1.605 0-13.718-.015-13.727-.017-11.84.03-22.878-.151-30.715-6.247-7.872 6.147-18.91 6.334-30.91 6.247-20.729.04-13.568.026-15.119.026-11.544 0-23.981-.646-33.916-4.269v155.217c0 4.91 3.973 8.882 8.882 8.882h44.412v-97.706c0-24.487 19.925-44.412 44.412-44.412s44.412 19.924 44.412 44.412v97.706h30.035l17.767-35.529h-3.391c-4.91 0-8.882-3.973-8.882-8.882v-53.294c0-4.909 3.973-8.882 8.882-8.882h53.294c4.91 0 8.882 3.973 8.882 8.882v53.294c0 4.91-3.973 8.882-8.882 8.882h-3.392l17.766 35.529h38.921c4.91 0 8.882-3.973 8.882-8.882v-155.216c-9.934 3.622-22.373 4.268-33.916 4.268-1.706 0-15.8-.024-15.282-.026zm-71.085 0h.189c-.126 0-.186 0-.189 0zm28.068 124.327-17.768 35.529h42.316l-17.765-35.529zm56.686-257.589c0-4.91-3.973-8.882-8.882-8.882h-213.177c-4.91 0-8.882 3.973-8.882 8.882v44.412h230.941zm-62.177 26.647h-106.588c-4.909 0-8.882-3.973-8.882-8.882s3.973-8.882 8.882-8.882h106.588c4.909 0 8.882 3.973 8.882 8.882s-3.972 8.882-8.882 8.882z" fill="url(#SVGID_2_)"/></g></g></g></svg>